<?xml version="1.0" standalone="no"?><svg xmlns="http://www.w3.org/2000/svg" viewBox="0 0 1440 320"><path fill="#0099ff" fill-opacity="1" d="M0,32L30,64C60,96,120,160,180,192C240,224,300,224,360,213.3C420,203,480,181,540,186.7C600,192,660,224,720,202.7C780,181,840,107,900,74.7C960,43,1020,53,1080,90.7C1140,128,1200,192,1260,218.7C1320,245,1380,235,1410,229.3L1440,224L1440,320L1410,320C1380,320,1320,320,1260,320C1200,320,1140,320,1080,320C1020,320,960,320,900,320C840,320,780,320,720,320C660,320,600,320,540,320C480,320,420,320,360,320C300,320,240,320,180,320C120,320,60,320,30,320L0,320Z"></path></svg>